<mxfile host="app.diagrams.net" modified="2021-02-27T01:46:37.288Z" agent="5.0 (Macintosh; Intel Mac OS X 10_12_6) AppleWebKit/537.36 (KHTML, like Gecko) Chrome/87.0.4280.141 Safari/537.36" etag="Ky084fz7NLW1YXJbrL0e" version="14.4.3" type="github">
  <diagram id="tI2Shw1nE4Sc8kBNwsMo" name="Page-1">
    <mxGraphModel dx="1533" dy="571" grid="1" gridSize="10" guides="1" tooltips="1" connect="1" arrows="1" fold="1" page="1" pageScale="1" pageWidth="827" pageHeight="1169" math="0" shadow="0">
      <root>
        <mxCell id="0" />
        <mxCell id="1" parent="0" />
        <mxCell id="0sQ_qsrijLwRu8dfVQEL-5" value="" style="endArrow=classic;html=1;" edge="1" parent="1">
          <mxGeometry relative="1" as="geometry">
            <mxPoint x="450" y="298" as="sourcePoint" />
            <mxPoint x="-10" y="298" as="targetPoint" />
          </mxGeometry>
        </mxCell>
        <mxCell id="0sQ_qsrijLwRu8dfVQEL-10" value="" style="shape=mxgraph.signs.transportation.car_3;html=1;pointerEvents=1;fillColor=#000000;strokeColor=none;verticalLabelPosition=bottom;verticalAlign=top;align=center;" vertex="1" parent="1">
          <mxGeometry x="180" y="280" width="50" height="18" as="geometry" />
        </mxCell>
        <mxCell id="0sQ_qsrijLwRu8dfVQEL-11" value="" style="html=1;verticalLabelPosition=bottom;align=center;labelBackgroundColor=#ffffff;verticalAlign=top;strokeWidth=2;strokeColor=#0080F0;shadow=0;dashed=0;shape=mxgraph.ios7.icons.stopwatch;" vertex="1" parent="1">
          <mxGeometry x="170" y="298" width="20" height="20" as="geometry" />
        </mxCell>
        <mxCell id="0sQ_qsrijLwRu8dfVQEL-12" value="" style="html=1;verticalLabelPosition=bottom;align=center;labelBackgroundColor=#ffffff;verticalAlign=top;strokeWidth=2;strokeColor=#0080F0;shadow=0;dashed=0;shape=mxgraph.ios7.icons.clock;" vertex="1" parent="1">
          <mxGeometry x="90" y="390" width="20" height="20" as="geometry" />
        </mxCell>
        <mxCell id="0sQ_qsrijLwRu8dfVQEL-13" value="" style="endArrow=classic;html=1;" edge="1" parent="1">
          <mxGeometry relative="1" as="geometry">
            <mxPoint x="450" y="390" as="sourcePoint" />
            <mxPoint x="-10" y="390" as="targetPoint" />
          </mxGeometry>
        </mxCell>
        <mxCell id="0sQ_qsrijLwRu8dfVQEL-14" value="" style="shape=mxgraph.bpmn.user_task;html=1;outlineConnect=0;" vertex="1" parent="1">
          <mxGeometry x="120" y="340" width="30" height="44" as="geometry" />
        </mxCell>
        <mxCell id="0sQ_qsrijLwRu8dfVQEL-16" value="" style="endArrow=none;dashed=1;html=1;dashPattern=1 3;strokeWidth=2;" edge="1" parent="1">
          <mxGeometry width="50" height="50" relative="1" as="geometry">
            <mxPoint x="99.5" y="560" as="sourcePoint" />
            <mxPoint x="99.5" y="390" as="targetPoint" />
          </mxGeometry>
        </mxCell>
        <mxCell id="0sQ_qsrijLwRu8dfVQEL-17" value="" style="endArrow=none;dashed=1;html=1;dashPattern=1 3;strokeWidth=2;" edge="1" parent="1">
          <mxGeometry width="50" height="50" relative="1" as="geometry">
            <mxPoint x="180" y="560" as="sourcePoint" />
            <mxPoint x="180" y="320" as="targetPoint" />
          </mxGeometry>
        </mxCell>
        <mxCell id="0sQ_qsrijLwRu8dfVQEL-18" value="" style="endArrow=classic;startArrow=classic;html=1;" edge="1" parent="1">
          <mxGeometry width="50" height="50" relative="1" as="geometry">
            <mxPoint x="180" y="510" as="sourcePoint" />
            <mxPoint x="100" y="510" as="targetPoint" />
          </mxGeometry>
        </mxCell>
        <mxCell id="0sQ_qsrijLwRu8dfVQEL-19" value="[t&lt;sub&gt;1&lt;/sub&gt;-t&lt;sub&gt;2&lt;/sub&gt;]" style="edgeLabel;html=1;align=center;verticalAlign=middle;resizable=0;points=[];" vertex="1" connectable="0" parent="0sQ_qsrijLwRu8dfVQEL-18">
          <mxGeometry x="0.175" y="1" relative="1" as="geometry">
            <mxPoint as="offset" />
          </mxGeometry>
        </mxCell>
        <mxCell id="0sQ_qsrijLwRu8dfVQEL-20" value="司机时间轴" style="text;html=1;align=center;verticalAlign=middle;resizable=0;points=[];autosize=1;" vertex="1" parent="1">
          <mxGeometry x="-40" y="260" width="80" height="20" as="geometry" />
        </mxCell>
        <mxCell id="0sQ_qsrijLwRu8dfVQEL-21" value="乘客时间轴" style="text;html=1;align=center;verticalAlign=middle;resizable=0;points=[];autosize=1;" vertex="1" parent="1">
          <mxGeometry x="-50" y="360" width="80" height="20" as="geometry" />
        </mxCell>
        <mxCell id="0sQ_qsrijLwRu8dfVQEL-22" value="t&lt;sub&gt;1&lt;/sub&gt;" style="text;html=1;align=center;verticalAlign=middle;resizable=0;points=[];autosize=1;" vertex="1" parent="1">
          <mxGeometry x="185" y="300" width="30" height="20" as="geometry" />
        </mxCell>
        <mxCell id="0sQ_qsrijLwRu8dfVQEL-23" value="t&lt;sub&gt;2&lt;/sub&gt;" style="text;html=1;align=center;verticalAlign=middle;resizable=0;points=[];autosize=1;" vertex="1" parent="1">
          <mxGeometry x="105" y="400" width="30" height="20" as="geometry" />
        </mxCell>
      </root>
    </mxGraphModel>
  </diagram>
</mxfile>
